<?xml version="1.0" encoding="UTF-8" standalone="no"?>
<!-- Created with Inkscape (http://www.inkscape.org/) -->

<svg
   width="512"
   height="512"
   viewBox="0 0 512 512"
   version="1.1"
   id="svg1"
   xmlns="http://www.w3.org/2000/svg"
   xmlns:svg="http://www.w3.org/2000/svg">
  <defs
     id="defs1" />
  <g
     id="layer1"
     transform="translate(-0.03921354,-0.08210671)">
    <rect
       style="fill:#8ad6b7;fill-opacity:1;stroke:none;stroke-width:16;stroke-linecap:square;stroke-dasharray:none;stroke-opacity:1;paint-order:normal"
       id="rect9"
       width="512"
       height="512"
       x="0.039213542"
       y="0.082106709"
       ry="256" />
    <path
       id="text1"
       style="font-family:'Adwaita Mono';-inkscape-font-specification:'Adwaita Mono';fill:#000000;fill-opacity:1;stroke:none;stroke-width:11.0319;stroke-linecap:square;stroke-dasharray:none;stroke-opacity:1"
       d="M 393.5031,113.334 263.09695,396.73291 252.22137,380.7471 c 3.4562,-4.3956 6.33785,-9.08279 8.64564,-14.06129 2.60868,-5.0023 4.63773,-10.15222 6.087,-15.44877 1.73912,-5.29655 2.89956,-10.74016 3.47927,-16.33097 0.5797,-5.59079 0.86878,-11.18058 0.86878,-16.77136 V 174.68619 c 0,-8.53335 -0.86862,-17.06691 -2.60773,-25.60023 -1.44928,-8.53334 -4.2031,-16.47813 -8.26103,-23.83445 -3.76809,-7.65059 -8.84143,-14.41924 -15.2182,-20.3043 -6.08691,-6.179314 -12.89748,-11.03416 -20.43365,-14.565195 -7.53618,-3.531036 -15.50721,-6.032227 -23.91294,-7.503492 -8.40573,-1.471265 -16.81243,-2.206177 -25.21816,-2.206177 -8.40573,0 -16.81107,0.734912 -25.21679,2.206177 -8.40574,1.471265 -16.37676,3.972456 -23.91294,7.503492 -7.53617,3.531035 -14.49198,8.385881 -20.86874,14.565195 -6.086918,5.88506 -11.160246,12.65371 -15.218188,20.3043 -3.76809,7.35632 -6.521914,15.30111 -8.261029,23.83445 C 80.723396,157.61928 80,166.15284 80,174.68618 v 143.44853 c 0,8.53333 0.723396,17.06548 2.172663,25.59884 1.739115,8.53333 4.492939,16.62566 8.261029,24.27623 4.057942,7.35634 9.13127,14.12499 15.218188,20.3043 6.37676,5.88507 13.33257,10.59238 20.86874,14.12341 7.53618,3.53104 15.5072,6.03225 23.91294,7.50349 8.40572,1.47128 16.81106,2.20757 25.21679,2.20757 8.98543,0 17.97167,-0.88383 26.95711,-2.64935 8.84878,-1.44889 17.13511,-4.3247 24.85947,-8.62729 l 21.1156,31.11568 -0.005,0.0124 h 0.0136 0.002 38.48055 L 432,113.334 Z m -217.85275,2.7e-4 c 5.50721,0 10.86963,0.44123 16.08697,1.32399 5.21736,0.88276 10.14547,2.64765 14.78311,5.29593 4.92751,2.35403 9.27473,5.59151 13.04281,9.71105 4.05793,3.82528 7.24606,8.23891 9.56489,13.24121 2.31882,4.70805 3.91358,9.85796 4.78313,15.44878 0.86955,5.29655 1.30388,10.74014 1.30388,16.33095 v 143.44853 c 0,5.29654 -0.43433,10.44509 -1.30388,15.44738 -0.578,4.98756 -1.87652,9.82872 -3.89524,14.52378 l -38.70831,-56.89952 h -38.26369 l 0.003,0.004 h -0.004 l 2.23677,3.28993 52.90768,77.96176 c -4.90622,2.62816 -10.09935,4.52781 -15.57962,5.69906 -5.5072,0.88275 -11.16007,1.32399 -16.95713,1.32399 -5.50722,0 -10.86962,-0.44124 -16.08698,-1.32399 -5.21735,-0.88275 -10.28931,-2.5001 -15.21682,-4.85415 -4.63764,-2.64829 -8.98485,-5.88576 -13.0428,-9.71105 -3.76809,-4.11954 -6.81235,-8.53316 -9.13118,-13.24121 -2.31883,-5.00231 -3.91221,-10.15221 -4.78177,-15.44877 -0.86956,-5.59079 -1.30523,-11.18059 -1.30523,-16.77137 V 174.68629 c 0,-5.59081 0.43567,-11.03441 1.30523,-16.33097 0.86956,-5.59082 2.46294,-10.74073 4.78177,-15.44877 2.31883,-5.0023 5.36309,-9.41592 9.13118,-13.24121 4.05795,-4.11955 8.40516,-7.35703 13.0428,-9.71105 4.92751,-2.64828 9.99947,-4.41317 15.21682,-5.29593 5.21736,-0.88276 10.57976,-1.32399 16.08698,-1.32399 z" />
  </g>
</svg>
